<svg width="19" height="19" viewBox="0 0 19 19" fill="none" xmlns="http://www.w3.org/2000/svg">
<g clip-path="url(#clip0_394_5353)">
<path d="M7.91703 15.8333C7.91696 15.9805 7.95789 16.1247 8.03522 16.2498C8.11255 16.375 8.22322 16.4761 8.35482 16.5419L9.93816 17.3335C10.0589 17.3939 10.193 17.4223 10.3279 17.4162C10.4627 17.4101 10.5937 17.3696 10.7085 17.2987C10.8233 17.2277 10.918 17.1285 10.9836 17.0106C11.0493 16.8927 11.0838 16.76 11.0837 16.625V11.0833C11.0839 10.691 11.2297 10.3126 11.493 10.0217L17.2112 3.69708C17.3137 3.58353 17.3811 3.44271 17.4052 3.29166C17.4294 3.14061 17.4093 2.9858 17.3473 2.84594C17.2853 2.70609 17.1842 2.58718 17.056 2.50361C16.9279 2.42003 16.7783 2.37536 16.6254 2.375H2.37537C2.22226 2.37506 2.07246 2.4195 1.9441 2.50296C1.81575 2.58642 1.71435 2.70531 1.65218 2.84522C1.59002 2.98513 1.56975 3.14007 1.59385 3.29127C1.61795 3.44246 1.68537 3.58343 1.78795 3.69708L7.50774 10.0217C7.771 10.3126 7.91685 10.691 7.91703 11.0833V15.8333Z" stroke="black" stroke-opacity="0.73" stroke-width="2" stroke-linecap="round" stroke-linejoin="round"/>
</g>
<defs>
<clipPath id="clip0_394_5353">
<rect width="19" height="19" fill="white"/>
</clipPath>
</defs>
</svg>
