<svg width="13" height="13" viewBox="0 0 13 13" fill="none" xmlns="http://www.w3.org/2000/svg">
<path d="M10.834 2.1665H2.16732C1.57148 2.1665 1.08398 2.654 1.08398 3.24984V9.74984C1.08398 10.3457 1.57148 10.8332 2.16732 10.8332H10.834C11.4298 10.8332 11.9173 10.3457 11.9173 9.74984V3.24984C11.9173 2.654 11.4298 2.1665 10.834 2.1665ZM10.6173 4.46859L7.07482 6.684C6.72273 6.90609 6.27857 6.90609 5.92648 6.684L2.38398 4.46859C2.32967 4.4381 2.28211 4.3969 2.24417 4.3475C2.20624 4.2981 2.17873 4.24151 2.1633 4.18116C2.14787 4.12082 2.14484 4.05797 2.1544 3.99642C2.16396 3.93487 2.18592 3.8759 2.21893 3.82308C2.25194 3.77026 2.29533 3.72469 2.34646 3.68913C2.3976 3.65356 2.45541 3.62874 2.51642 3.61617C2.57742 3.60359 2.64035 3.60353 2.70138 3.61598C2.76241 3.62842 2.82028 3.65313 2.87148 3.68859L6.50065 5.95817L10.1298 3.68859C10.181 3.65313 10.2389 3.62842 10.2999 3.61598C10.361 3.60353 10.4239 3.60359 10.4849 3.61617C10.5459 3.62874 10.6037 3.65356 10.6548 3.68913C10.706 3.72469 10.7494 3.77026 10.7824 3.82308C10.8154 3.8759 10.8373 3.93487 10.8469 3.99642C10.8565 4.05797 10.8534 4.12082 10.838 4.18116C10.8226 4.24151 10.7951 4.2981 10.7571 4.3475C10.7192 4.3969 10.6716 4.4381 10.6173 4.46859Z" fill="#FF9B19"/>
</svg>
