<svg width="13" height="13" viewBox="0 0 13 13" fill="none" xmlns="http://www.w3.org/2000/svg">
<path d="M6.50065 6.22933C6.1415 6.22933 5.79707 6.08666 5.54311 5.8327C5.28916 5.57875 5.14648 5.23431 5.14648 4.87516C5.14648 4.51602 5.28916 4.17158 5.54311 3.91762C5.79707 3.66367 6.1415 3.521 6.50065 3.521C6.8598 3.521 7.20424 3.66367 7.45819 3.91762C7.71215 4.17158 7.85482 4.51602 7.85482 4.87516C7.85482 5.05299 7.81979 5.22908 7.75174 5.39338C7.68368 5.55767 7.58394 5.70696 7.45819 5.8327C7.33245 5.95845 7.18316 6.0582 7.01887 6.12625C6.85457 6.1943 6.67848 6.22933 6.50065 6.22933ZM6.50065 1.0835C5.49504 1.0835 4.53061 1.48297 3.81954 2.19405C3.10846 2.90512 2.70898 3.86955 2.70898 4.87516C2.70898 7.71891 6.50065 11.9168 6.50065 11.9168C6.50065 11.9168 10.2923 7.71891 10.2923 4.87516C10.2923 3.86955 9.89284 2.90512 9.18176 2.19405C8.47069 1.48297 7.50626 1.0835 6.50065 1.0835Z" fill="#FF9B19"/>
</svg>
