<svg width="38" height="38" viewBox="0 0 38 38" fill="none" xmlns="http://www.w3.org/2000/svg">
<g clip-path="url(#clip0_237_1627)">
<path d="M28.7025 0H8.78648C3.93384 0 0 3.93384 0 8.78648V28.7025C0 33.5551 3.93384 37.489 8.78648 37.489H28.7025C33.5551 37.489 37.489 33.5551 37.489 28.7025V8.78648C37.489 3.93384 33.5551 0 28.7025 0Z" fill="#242938"/>
<mask id="mask0_237_1627" style="mask-type:luminance" maskUnits="userSpaceOnUse" x="8" y="4" width="21" height="30">
<path d="M8.93359 4.1001H28.463V33.3884H8.93359V4.1001Z" fill="white"/>
</mask>
<g mask="url(#mask0_237_1627)">
<path d="M13.8151 33.3883C16.5096 33.3883 18.6964 31.2015 18.6964 28.507V23.6255H13.8151C11.1205 23.6255 8.93359 25.8124 8.93359 28.507C8.93359 31.2015 11.1205 33.3883 13.8151 33.3883Z" fill="#0ACF83"/>
<path d="M8.93359 18.7446C8.93359 16.0501 11.1205 13.8633 13.8151 13.8633H18.6964V23.6259H13.8151C11.1205 23.6259 8.93359 21.4391 8.93359 18.7446Z" fill="#A259FF"/>
<path d="M8.93359 8.98142C8.93359 6.28691 11.1205 4.1001 13.8151 4.1001H18.6964V13.8629H13.8151C11.1205 13.8629 8.93359 11.6759 8.93359 8.98142Z" fill="#F24E1E"/>
<path d="M18.6934 4.1001H23.5747C26.2692 4.1001 28.4562 6.28691 28.4562 8.98142C28.4562 11.6759 26.2692 13.8629 23.5747 13.8629H18.6934V4.1001Z" fill="#FF7262"/>
<path d="M28.4562 18.7446C28.4562 21.4391 26.2692 23.6259 23.5747 23.6259C20.8802 23.6259 18.6934 21.4391 18.6934 18.7446C18.6934 16.0501 20.8802 13.8633 23.5747 13.8633C26.2692 13.8633 28.4562 16.0501 28.4562 18.7446Z" fill="#1ABCFE"/>
</g>
</g>
<defs>
<clipPath id="clip0_237_1627">
<rect width="37.489" height="37.489" fill="white"/>
</clipPath>
</defs>
</svg>
