<svg width="27" height="27" viewBox="0 0 27 27" fill="none" xmlns="http://www.w3.org/2000/svg">
<circle cx="13.5" cy="13.5" r="13.5" fill="#4A4A4C"/>
<g clip-path="url(#clip0_195_893)">
<path d="M16.4798 10.521H16.4852M10.7923 8.0835H16.209C17.7048 8.0835 18.9173 9.29606 18.9173 10.7918V16.2085C18.9173 17.7043 17.7048 18.9168 16.209 18.9168H10.7923C9.29655 18.9168 8.08398 17.7043 8.08398 16.2085V10.7918C8.08398 9.29606 9.29655 8.0835 10.7923 8.0835ZM15.6673 13.1589C15.7342 13.6097 15.6572 14.0701 15.4473 14.4746C15.2374 14.8791 14.9053 15.2072 14.4982 15.4121C14.0911 15.617 13.6298 15.6883 13.1799 15.6159C12.7299 15.5435 12.3143 15.331 11.992 15.0088C11.6698 14.6865 11.4573 14.2709 11.3849 13.8209C11.3125 13.371 11.3839 12.9097 11.5887 12.5026C11.7936 12.0955 12.1217 11.7634 12.5262 11.5535C12.9307 11.3436 13.3911 11.2666 13.8419 11.3335C14.3017 11.4017 14.7274 11.616 15.0562 11.9447C15.3849 12.2734 15.5991 12.6991 15.6673 13.1589Z" stroke="white" stroke-width="1.5" stroke-linecap="round" stroke-linejoin="round"/>
</g>
<defs>
<clipPath id="clip0_195_893">
<rect width="13" height="13" fill="white" transform="translate(7 7)"/>
</clipPath>
</defs>
</svg>
