<svg width="38" height="38" viewBox="0 0 38 38" fill="none" xmlns="http://www.w3.org/2000/svg">
<g clip-path="url(#clip0_237_1767)">
<g clip-path="url(#clip1_237_1767)">
<path d="M28.7033 0H8.78672C3.93395 0 0 3.93395 0 8.78672V28.7033C0 33.5561 3.93395 37.49 8.78672 37.49H28.7033C33.5561 37.49 37.49 33.5561 37.49 28.7033V8.78672C37.49 3.93395 33.5561 0 28.7033 0Z" fill="#242938"/>
<path d="M15.4577 20.1045C15.5712 18.0718 16.5617 16.2809 18.0562 15.0114C19.5218 13.7645 21.4946 13.0024 23.6471 13.0024C25.7973 13.0024 27.7701 13.7645 29.2367 15.0114C30.7302 16.2809 31.7207 18.0718 31.8353 20.1023C31.9486 22.1909 31.1131 24.1311 29.6475 25.5694C28.153 27.0323 26.0274 27.9504 23.6471 27.9504C21.2667 27.9504 19.1368 27.0323 17.6434 25.5694C16.1766 24.1311 15.3433 22.1909 15.4577 20.1045Z" fill="white"/>
<path d="M19.4448 20.287C19.5029 19.244 20.0113 18.325 20.778 17.6737C21.53 17.0338 22.5423 16.6428 23.6468 16.6428C24.7501 16.6428 25.7623 17.0338 26.5147 17.6737C27.2811 18.325 27.7894 19.244 27.8481 20.2858C27.9063 21.3575 27.4776 22.353 26.7256 23.0911C25.9587 23.8418 24.8681 24.3127 23.6468 24.3127C22.4254 24.3127 21.3325 23.8418 20.5661 23.0911C19.8137 22.353 19.3861 21.3575 19.4448 20.287Z" fill="#265787"/>
<path d="M12.7548 22.3943C12.762 22.8025 12.8914 23.5956 13.0858 24.2151C13.4943 25.5261 14.187 26.7389 15.1508 27.8078C16.14 28.9066 17.358 29.7891 18.7649 30.4156C20.2437 31.0736 21.846 31.4089 23.5103 31.4061C25.1719 31.4039 26.7741 31.062 28.2529 30.399C29.6598 29.7664 30.8768 28.8801 31.8643 27.7809C32.8276 26.7074 33.5193 25.4924 33.9287 24.1814C34.1329 23.5283 34.2631 22.8542 34.3168 22.172C34.3679 21.5065 34.3464 20.8374 34.2527 20.1766C34.0693 18.8804 33.623 17.6641 32.9357 16.5556C32.3073 15.5369 31.497 14.645 30.5337 13.8944L30.5359 13.8926L20.814 6.3921C20.8052 6.38537 20.7981 6.37819 20.7888 6.37219C20.1509 5.88013 19.0783 5.88189 18.3768 6.37497C17.6676 6.87362 17.5865 7.6981 18.2176 8.21828L18.2149 8.22106L22.2698 11.5342L9.91082 11.5474H9.89442C8.87282 11.5486 7.8909 12.2219 7.69657 13.0731C7.49681 13.94 8.19053 14.6592 9.25269 14.6632L9.25108 14.667L15.5153 14.6548L4.33711 23.2762C4.32291 23.2868 4.30753 23.2978 4.29435 23.3083C3.23994 24.1196 2.89902 25.4687 3.56315 26.3224C4.23724 27.1907 5.6705 27.1923 6.73589 26.3274L12.8367 21.3105C12.8367 21.3105 12.7476 21.9878 12.7548 22.3943ZM28.4313 24.6623C27.1744 25.9491 25.4145 26.6789 23.5103 26.6827C21.6033 26.6861 19.8435 25.9629 18.5865 24.6783C17.9723 24.0522 17.521 23.332 17.2428 22.5648C16.9689 21.8094 16.8636 21.0033 16.9343 20.2029C17.0007 19.4137 17.2345 18.6609 17.6078 17.9797C17.9745 17.31 18.4795 16.7051 19.103 16.1932C20.325 15.1927 21.8805 14.651 23.5075 14.6488C25.1362 14.6466 26.6907 15.1832 27.9138 16.1805C28.5362 16.6901 29.0407 17.2931 29.4074 17.9614C29.7858 18.6467 30.0161 19.4038 30.0835 20.1837C30.1532 20.9836 30.0475 21.789 29.7739 22.5438C29.4951 23.3133 29.0455 24.0335 28.4313 24.6623Z" fill="#EA7600"/>
</g>
</g>
<defs>
<clipPath id="clip0_237_1767">
<rect width="37.49" height="37.49" fill="white"/>
</clipPath>
<clipPath id="clip1_237_1767">
<rect width="37.49" height="37.49" fill="white"/>
</clipPath>
</defs>
</svg>
