<svg width="13" height="13" viewBox="0 0 13 13" fill="none" xmlns="http://www.w3.org/2000/svg">
<path d="M2.16602 10.2918V5.41683C2.16602 5.2453 2.20447 5.0828 2.28139 4.92933C2.35831 4.77586 2.46429 4.64947 2.59935 4.55016L5.84935 2.11266C6.03893 1.96822 6.2556 1.896 6.49935 1.896C6.7431 1.896 6.95977 1.96822 7.14935 2.11266L10.3993 4.55016C10.5348 4.64947 10.6409 4.77586 10.7178 4.92933C10.7948 5.0828 10.833 5.2453 10.8327 5.41683V10.2918C10.8327 10.5897 10.7265 10.8449 10.5142 11.0572C10.3018 11.2695 10.0469 11.3755 9.74935 11.3752H8.12435C7.97088 11.3752 7.84232 11.3232 7.73868 11.2192C7.63504 11.1152 7.58304 10.9866 7.58268 10.8335V8.12516C7.58268 7.97169 7.53068 7.84314 7.42668 7.7395C7.32268 7.63586 7.19413 7.58386 7.04102 7.5835H5.95768C5.80421 7.5835 5.67565 7.6355 5.57202 7.7395C5.46838 7.8435 5.41638 7.97205 5.41602 8.12516V10.8335C5.41602 10.987 5.36402 11.1157 5.26002 11.2197C5.15602 11.3237 5.02746 11.3755 4.87435 11.3752H3.24935C2.95143 11.3752 2.69649 11.2692 2.48452 11.0572C2.27254 10.8452 2.16638 10.5901 2.16602 10.2918Z" fill="#FF9B19"/>
</svg>
