<svg width="13" height="13" viewBox="0 0 13 13" fill="none" xmlns="http://www.w3.org/2000/svg">
<path fill-rule="evenodd" clip-rule="evenodd" d="M11.2389 9.05342C11.2383 9.07939 11.2357 9.10527 11.2313 9.13088C11.2428 9.18968 11.241 9.25028 11.2263 9.30834C11.2116 9.3664 11.1841 9.42049 11.146 9.46671C11.1079 9.51294 11.0601 9.55017 11.0059 9.57573C10.9517 9.6013 10.8926 9.61456 10.8327 9.61458H3.24935C3.16043 9.61458 3.07239 9.6321 2.99024 9.66612C2.90809 9.70015 2.83345 9.75002 2.77058 9.8129C2.70771 9.87577 2.65783 9.95041 2.62381 10.0326C2.58978 10.1147 2.57227 10.2028 2.57227 10.2917C2.57227 10.3806 2.58978 10.4686 2.62381 10.5508C2.65783 10.6329 2.70771 10.7076 2.77058 10.7704C2.83345 10.8333 2.90809 10.8832 2.99024 10.9172C3.07239 10.9512 3.16043 10.9688 3.24935 10.9688H10.8327C10.9404 10.9688 11.0438 11.0116 11.1199 11.0877C11.1961 11.1639 11.2389 11.2673 11.2389 11.375C11.2389 11.4827 11.1961 11.5861 11.1199 11.6623C11.0438 11.7384 10.9404 11.7812 10.8327 11.7812H3.24935C2.85429 11.7812 2.47541 11.6243 2.19605 11.345C1.9167 11.0656 1.75977 10.6867 1.75977 10.2917V2.70833C1.75977 2.31327 1.9167 1.93439 2.19605 1.65504C2.47541 1.37569 2.85429 1.21875 3.24935 1.21875H10.5077C10.9118 1.21875 11.2389 1.54592 11.2389 1.95V9.05342ZM4.87435 3.38542C4.7666 3.38542 4.66327 3.42822 4.58709 3.5044C4.5109 3.58059 4.4681 3.68392 4.4681 3.79167C4.4681 3.89941 4.5109 4.00274 4.58709 4.07893C4.66327 4.15512 4.7666 4.19792 4.87435 4.19792H8.12435C8.23209 4.19792 8.33542 4.15512 8.41161 4.07893C8.4878 4.00274 8.5306 3.89941 8.5306 3.79167C8.5306 3.68392 8.4878 3.58059 8.41161 3.5044C8.33542 3.42822 8.23209 3.38542 8.12435 3.38542H4.87435Z" fill="#FF9B19"/>
</svg>
