<svg width="38" height="38" viewBox="0 0 38 38" fill="none" xmlns="http://www.w3.org/2000/svg">
<g clip-path="url(#clip0_237_1651)">
<path d="M6.64843 0.46875H30.8698C34.5308 0.46875 37.5182 3.42686 37.5182 7.11718V30.4013C37.5182 34.0624 34.5601 37.0498 30.8698 37.0498H6.64843C2.95811 37.0205 0 34.0624 0 30.3721V7.11718C0 3.42686 2.95811 0.46875 6.64843 0.46875Z" fill="#330000"/>
<path d="M18.1299 22.3468H12.3015L11.13 26.0078C11.1007 26.1542 10.9835 26.2421 10.8371 26.2128H7.90828C7.73255 26.2128 7.70326 26.125 7.73255 25.9199L12.7701 11.4515C12.8287 11.3051 12.858 11.1294 12.9166 10.9244C12.9751 10.6022 13.0044 10.2507 13.0044 9.89927C12.9751 9.81141 13.063 9.75283 13.1216 9.72354H17.1634C17.2805 9.72354 17.3391 9.78212 17.3684 9.84069L23.0796 25.9199C23.1382 26.0957 23.0796 26.1835 22.9332 26.1835H19.6529C19.5357 26.2128 19.4479 26.125 19.3893 26.0078L18.1299 22.3468ZM13.2095 19.1544H17.1634C17.0755 18.8322 16.9584 18.4222 16.8119 18.0414C16.6655 17.6314 16.519 17.1628 16.4019 16.6941C16.2554 16.1962 16.109 15.7276 15.9626 15.259C15.8161 14.7611 15.6697 14.3218 15.5525 13.8825C15.4354 13.4431 15.3182 13.0331 15.2011 12.6524H15.1718C15.0253 13.326 14.8496 13.9996 14.6446 14.6733C14.4103 15.4347 14.176 16.1962 13.9124 16.987C13.6781 17.7778 13.4438 18.51 13.2095 19.1544ZM26.5649 12.5059C26.0377 12.5352 25.5398 12.3302 25.1884 11.9494C24.8369 11.5687 24.6319 11.0415 24.6612 10.5143C24.6319 9.98714 24.8369 9.48924 25.2176 9.13778C25.5984 8.78632 26.0963 8.5813 26.5942 8.5813C27.2092 8.5813 27.6778 8.75703 28.0293 9.13778C28.3808 9.51852 28.5565 10.0164 28.5565 10.5143C28.5858 11.0415 28.3808 11.5687 28 11.9494C27.6193 12.3302 27.0921 12.5352 26.5649 12.5059ZM24.8076 26.0664V14.0289C24.8076 13.8825 24.8662 13.8239 25.0126 13.8239H28.1172C28.2636 13.8239 28.3222 13.9118 28.3222 14.0289V26.0664C28.3222 26.2421 28.2636 26.33 28.1172 26.33H25.0419C24.8955 26.3007 24.8076 26.2128 24.8076 26.0664Z" fill="#FF9A00"/>
</g>
<defs>
<clipPath id="clip0_237_1651">
<rect width="37.489" height="37.489" fill="white"/>
</clipPath>
</defs>
</svg>
