<svg width="27" height="27" viewBox="0 0 27 27" fill="none" xmlns="http://www.w3.org/2000/svg">
<circle cx="13.5" cy="13.5" r="13.5" fill="#4A4A4C"/>
<g clip-path="url(#clip0_195_897)">
<path d="M15.6673 11.3335C16.5293 11.3335 17.3559 11.6759 17.9654 12.2854C18.5749 12.8949 18.9173 13.7215 18.9173 14.5835V18.3752H16.7507V14.5835C16.7507 14.2962 16.6365 14.0206 16.4333 13.8175C16.2302 13.6143 15.9546 13.5002 15.6673 13.5002C15.38 13.5002 15.1044 13.6143 14.9013 13.8175C14.6981 14.0206 14.584 14.2962 14.584 14.5835V18.3752H12.4173V14.5835C12.4173 13.7215 12.7597 12.8949 13.3692 12.2854C13.9787 11.6759 14.8054 11.3335 15.6673 11.3335Z" stroke="white" stroke-width="1.3" stroke-linecap="round" stroke-linejoin="round"/>
<path d="M10.2507 11.8752H8.08398V18.3752H10.2507V11.8752Z" stroke="white" stroke-width="1.3" stroke-linecap="round" stroke-linejoin="round"/>
<path d="M9.16732 10.2502C9.76563 10.2502 10.2507 9.76514 10.2507 9.16683C10.2507 8.56852 9.76563 8.0835 9.16732 8.0835C8.56901 8.0835 8.08398 8.56852 8.08398 9.16683C8.08398 9.76514 8.56901 10.2502 9.16732 10.2502Z" stroke="white" stroke-width="1.3" stroke-linecap="round" stroke-linejoin="round"/>
</g>
<defs>
<clipPath id="clip0_195_897">
<rect width="13" height="13" fill="white" transform="translate(7 7)"/>
</clipPath>
</defs>
</svg>
