<svg width="38" height="38" viewBox="0 0 38 38" fill="none" xmlns="http://www.w3.org/2000/svg">
<g clip-path="url(#clip0_237_1659)">
<path d="M28.7025 0H8.78648C3.93384 0 0 3.93384 0 8.78648V28.7025C0 33.5551 3.93384 37.489 8.78648 37.489H28.7025C33.5551 37.489 37.489 33.5551 37.489 28.7025V8.78648C37.489 3.93384 33.5551 0 28.7025 0Z" fill="#242938"/>
<path d="M4.93687 14.6745C4.93687 14.6745 4.24348 14.1747 5.07555 13.5074L7.01385 11.7741C7.01385 11.7741 7.56857 11.1905 8.15492 11.699L26.0426 25.2417V31.7358C26.0426 31.7358 26.0339 32.7556 24.7252 32.6429L4.93687 14.6745Z" fill="#2489CA"/>
<path d="M9.54773 18.8604L4.93718 23.0519C4.93718 23.0519 4.46329 23.4044 4.93718 24.0343L7.07771 25.9812C7.07771 25.9812 7.58615 26.5273 8.33725 25.9061L13.2252 22.1998L9.54773 18.8604Z" fill="#1070B3"/>
<path d="M17.6435 18.8952L26.0992 12.4386L26.0443 5.97919C26.0443 5.97919 25.6831 4.5694 24.4785 5.30322L13.2266 15.544L17.6435 18.8952Z" fill="#0877B9"/>
<path d="M24.7249 32.6516C25.2161 33.1542 25.8112 32.9896 25.8112 32.9896L32.4006 29.7426C33.2441 29.1676 33.1257 28.4542 33.1257 28.4542V9.06433C33.1257 8.21204 32.2532 7.91755 32.2532 7.91755L26.5421 5.16445C25.2941 4.39315 24.4766 5.30313 24.4766 5.30313C24.4766 5.30313 25.528 4.54633 26.0423 5.97911V31.6173C26.043 31.7922 26.0045 31.9649 25.9297 32.123C25.7795 32.4263 25.453 32.7093 24.6702 32.5909L24.7249 32.6516Z" fill="#3C99D4"/>
</g>
<defs>
<clipPath id="clip0_237_1659">
<rect width="37.489" height="37.489" fill="white"/>
</clipPath>
</defs>
</svg>
