<svg width="13" height="13" viewBox="0 0 13 13" fill="none" xmlns="http://www.w3.org/2000/svg">
<path d="M7.04232 4.87516H5.95898V3.79183H7.04232M7.04232 9.2085H5.95898V5.9585H7.04232M6.50065 1.0835C5.78932 1.0835 5.08496 1.2236 4.42778 1.49582C3.7706 1.76803 3.17347 2.16702 2.67049 2.67C1.65467 3.68582 1.08398 5.06357 1.08398 6.50016C1.08398 7.93675 1.65467 9.3145 2.67049 10.3303C3.17347 10.8333 3.7706 11.2323 4.42778 11.5045C5.08496 11.7767 5.78932 11.9168 6.50065 11.9168C7.93724 11.9168 9.31499 11.3461 10.3308 10.3303C11.3466 9.3145 11.9173 7.93675 11.9173 6.50016C11.9173 5.78884 11.7772 5.08447 11.505 4.42729C11.2328 3.77011 10.8338 3.17298 10.3308 2.67C9.82783 2.16702 9.2307 1.76803 8.57352 1.49582C7.91634 1.2236 7.21198 1.0835 6.50065 1.0835Z" fill="#FF9B19"/>
</svg>
