<svg width="38" height="38" viewBox="0 0 38 38" fill="none" xmlns="http://www.w3.org/2000/svg">
<path d="M18.7458 3.12402C16.6945 3.12402 14.6632 3.52807 12.768 4.31309C10.8728 5.09811 9.15076 6.24873 7.70024 7.69926C4.77076 10.6287 3.125 14.602 3.125 18.7449C3.125 25.6493 7.60818 31.5071 13.8097 33.5847C14.5907 33.7096 14.8406 33.2254 14.8406 32.8036V30.1637C10.5137 31.1009 9.59203 28.0705 9.59203 28.0705C8.87347 26.2585 7.85811 25.7742 7.85811 25.7742C6.43662 24.8057 7.96746 24.837 7.96746 24.837C9.52954 24.9463 10.3574 26.4459 10.3574 26.4459C11.7165 28.8203 14.0127 28.1174 14.9031 27.7425C15.0437 26.7271 15.4498 26.0398 15.8872 25.6493C12.4194 25.2587 8.77974 23.9154 8.77974 17.9638C8.77974 16.2299 9.37333 14.8396 10.3887 13.7306C10.2325 13.34 9.68575 11.7155 10.5449 9.60667C10.5449 9.60667 11.857 9.18491 14.8406 11.2C16.0747 10.8563 17.4181 10.6845 18.7458 10.6845C20.0736 10.6845 21.417 10.8563 22.651 11.2C25.6346 9.18491 26.9468 9.60667 26.9468 9.60667C27.8059 11.7155 27.2592 13.34 27.103 13.7306C28.1183 14.8396 28.7119 16.2299 28.7119 17.9638C28.7119 23.931 25.0567 25.2431 21.5732 25.6336C22.1356 26.1179 22.651 27.0708 22.651 28.5235V32.8036C22.651 33.2254 22.901 33.7252 23.6976 33.5847C29.8991 31.4915 34.3667 25.6493 34.3667 18.7449C34.3667 16.6935 33.9626 14.6622 33.1776 12.767C32.3926 10.8718 31.242 9.14979 29.7914 7.69926C28.3409 6.24873 26.6189 5.09811 24.7237 4.31309C22.8285 3.52807 20.7972 3.12402 18.7458 3.12402Z" fill="#1E1E1E"/>
</svg>
