<svg width="13" height="13" viewBox="0 0 13 13" fill="none" xmlns="http://www.w3.org/2000/svg">
<path d="M2.60078 1.2998C1.88375 1.2998 1.30078 1.88277 1.30078 2.5998V10.3998C1.30078 11.1168 1.88375 11.6998 2.60078 11.6998H4.22578V9.4248C4.22578 8.70777 4.80875 8.1248 5.52578 8.1248H9.10078V4.76309C9.10078 4.41777 8.96469 4.08668 8.72094 3.84293L6.55562 1.67965C6.31187 1.4359 5.98281 1.2998 5.6375 1.2998H2.60078ZM7.9125 4.8748H6.01328C5.74312 4.8748 5.52578 4.65746 5.52578 4.3873V2.48809L7.9125 4.8748ZM5.52578 9.01856C5.30234 9.01856 5.11953 9.20137 5.11953 9.4248V12.0248C5.11953 12.2482 5.30234 12.4311 5.52578 12.4311C5.74922 12.4311 5.93203 12.2482 5.93203 12.0248V11.4561H6.17578C6.84812 11.4561 7.39453 10.9096 7.39453 10.2373C7.39453 9.56496 6.84812 9.01856 6.17578 9.01856H5.52578ZM6.17578 10.6436H5.93203V9.83105H6.17578C6.39922 9.83105 6.58203 10.0139 6.58203 10.2373C6.58203 10.4607 6.39922 10.6436 6.17578 10.6436ZM8.12578 9.01856C7.90234 9.01856 7.71953 9.20137 7.71953 9.4248V12.0248C7.71953 12.2482 7.90234 12.4311 8.12578 12.4311H8.77578C9.35875 12.4311 9.83203 11.9578 9.83203 11.3748V10.0748C9.83203 9.49184 9.35875 9.01856 8.77578 9.01856H8.12578ZM8.53203 11.6186V9.83105H8.77578C8.90984 9.83105 9.01953 9.94074 9.01953 10.0748V11.3748C9.01953 11.5089 8.90984 11.6186 8.77578 11.6186H8.53203ZM10.3195 9.4248V12.0248C10.3195 12.2482 10.5023 12.4311 10.7258 12.4311C10.9492 12.4311 11.132 12.2482 11.132 12.0248V11.1311H11.7008C11.9242 11.1311 12.107 10.9482 12.107 10.7248C12.107 10.5014 11.9242 10.3186 11.7008 10.3186H11.132V9.83105H11.7008C11.9242 9.83105 12.107 9.64824 12.107 9.4248C12.107 9.20137 11.9242 9.01856 11.7008 9.01856H10.7258C10.5023 9.01856 10.3195 9.20137 10.3195 9.4248Z" fill="#FF9B19"/>
</svg>
