<svg width="38" height="38" viewBox="0 0 38 38" fill="none" xmlns="http://www.w3.org/2000/svg">
<g clip-path="url(#clip0_237_1762)">
<path d="M6.63877 0.46875H30.8502C34.5212 0.46875 37.489 3.43653 37.489 7.10752V30.3817C37.489 34.0527 34.5212 37.0205 30.8502 37.0205H6.63877C2.96778 37.0205 0 34.0527 0 30.3817V7.10752C0 3.43653 2.96778 0.46875 6.63877 0.46875Z" fill="#001E36"/>
<path d="M13.4342 9.7627C12.9656 9.7627 12.4969 9.7627 12.0128 9.77851C11.5284 9.79403 11.0753 9.79403 10.6535 9.80985C10.2318 9.82537 9.84138 9.82537 9.46649 9.84089C9.10713 9.85642 8.8573 9.85642 8.59165 9.85642C8.48241 9.85642 8.43555 9.9188 8.43555 10.0283V26.1017C8.43555 26.2423 8.49793 26.305 8.62299 26.305H11.6534C11.7627 26.2892 11.8409 26.1955 11.8251 26.0862V21.0721C12.1218 21.0721 12.3405 21.0721 12.4969 21.0876C12.6531 21.1031 12.9029 21.1031 13.2778 21.1031C14.5588 21.1031 15.7304 20.9625 16.7924 20.5721C17.8078 20.1972 18.6826 19.5412 19.3073 18.6663C19.9322 17.7916 20.2446 16.6825 20.2446 15.3392C20.2446 14.6363 20.1198 13.9647 19.8855 13.3086C19.6372 12.6402 19.2483 12.033 18.745 11.5279C18.151 10.9508 17.436 10.5132 16.6518 10.2468C15.7769 9.9188 14.7149 9.7627 13.4342 9.7627ZM13.7827 12.8394C14.3392 12.85 14.881 12.9472 15.3865 13.1522C15.8396 13.3241 16.2145 13.6367 16.4802 14.0426C16.7293 14.4627 16.8539 14.945 16.8395 15.4332C16.8395 16.1203 16.6831 16.6516 16.3551 17.042C16.0112 17.4324 15.574 17.7294 15.0743 17.87C14.4962 18.0574 13.887 18.1509 13.2778 18.1509H12.4498C12.2624 18.1509 12.0597 18.1353 11.8409 18.1198V12.8713C11.9501 12.8555 12.1689 12.84 12.4814 12.8558C12.7781 12.84 13.1372 12.84 13.5434 12.84C13.6235 12.8381 13.7032 12.8379 13.7827 12.8394ZM26.8833 13.6369C25.7742 13.6369 24.8525 13.8086 24.1185 14.1835C23.4469 14.496 22.8688 14.9956 22.4784 15.6203C22.1348 16.1985 21.9471 16.8387 21.9471 17.5106C21.9337 18.0632 22.0572 18.6105 22.3065 19.1039C22.5986 19.6292 23.0042 20.0828 23.4938 20.4315C24.1809 20.9015 24.9266 21.2796 25.7118 21.5562C26.4771 21.8529 26.9926 22.0872 27.2427 22.2902C27.4925 22.4934 27.6176 22.6964 27.6176 22.9152C27.6176 23.1963 27.4457 23.462 27.1958 23.5712C26.9147 23.7118 26.4929 23.79 25.8993 23.79C25.2745 23.79 24.6495 23.7118 24.0559 23.5557C23.3742 23.4035 22.7206 23.1452 22.119 22.7904C22.0722 22.7591 22.0253 22.7435 21.9784 22.7749C21.9316 22.8059 21.9161 22.8683 21.9161 22.9152V25.6331C21.9005 25.7582 21.9784 25.8674 22.088 25.9298C22.5945 26.1665 23.1303 26.3346 23.6813 26.4298C24.3842 26.5703 25.0868 26.6327 25.8052 26.6327C26.9299 26.6327 27.8674 26.4611 28.6327 26.1331C29.3356 25.8519 29.9448 25.3678 30.3821 24.7428C30.7916 24.1283 31.0042 23.4036 30.9913 22.6653C31.0067 22.1076 30.8833 21.5548 30.6322 21.0565C30.3353 20.5252 29.9135 20.088 29.398 19.7599C28.6439 19.2864 27.8365 18.9036 26.9926 18.6195C26.6157 18.4635 26.2457 18.2915 25.8834 18.104C25.6805 17.9947 25.493 17.8542 25.3524 17.6822C25.2587 17.5572 25.1963 17.4169 25.1963 17.2763C25.1963 17.1357 25.2432 16.9796 25.3211 16.8546C25.4306 16.6984 25.6023 16.5889 25.8052 16.542C26.1022 16.4641 26.4302 16.417 26.7425 16.4325C27.3361 16.4325 27.914 16.5107 28.4921 16.6358C29.0234 16.745 29.5231 16.9169 29.9917 17.1671C30.0541 17.1981 30.1323 17.1981 30.2729 17.1671C30.2973 17.149 30.3171 17.1254 30.3307 17.0982C30.3442 17.071 30.3512 17.041 30.3511 17.0107V14.4646C30.3511 14.402 30.3353 14.3396 30.3197 14.2772C30.2884 14.2148 30.226 14.1521 30.1636 14.1366C29.7328 13.9605 29.2814 13.8398 28.8202 13.7772C28.1788 13.6838 27.5315 13.6372 26.8833 13.6369Z" fill="#31A8FF"/>
</g>
<defs>
<clipPath id="clip0_237_1762">
<rect width="37.489" height="37.489" fill="white"/>
</clipPath>
</defs>
</svg>
