<svg width="13" height="13" viewBox="0 0 13 13" fill="none" xmlns="http://www.w3.org/2000/svg">
<path d="M10.5918 6.84531C10.6994 6.73206 10.8286 6.6415 10.9718 6.57897C11.1149 6.51644 11.2692 6.48321 11.4254 6.48124C11.5816 6.47927 11.7367 6.50859 11.8814 6.56749C12.0261 6.62638 12.1575 6.71365 12.268 6.82415C12.3784 6.93466 12.4656 7.06615 12.5245 7.21089C12.5833 7.35563 12.6125 7.51068 12.6105 7.6669C12.6084 7.82312 12.5751 7.97735 12.5125 8.1205C12.4499 8.26364 12.3593 8.39281 12.246 8.50037L8.74859 11.971C8.606 12.1128 8.42766 12.2139 8.23266 12.2643L7.00619 12.5799C6.93775 12.5975 6.86591 12.597 6.79776 12.5783C6.72961 12.5596 6.66751 12.5235 6.61758 12.4735C6.56766 12.4235 6.53164 12.3613 6.51309 12.2931C6.49453 12.225 6.49408 12.1531 6.51178 12.0847L6.83272 10.8448C6.88064 10.6598 6.9768 10.4907 7.11141 10.3549L10.5918 6.84531ZM6.68078 9.92631C6.47032 10.1385 6.3199 10.4028 6.24487 10.6921L5.92394 11.9316C5.9039 12.0096 5.89306 12.0862 5.89144 12.1615C4.82991 12.075 3.86506 11.7638 3.12203 11.2909C2.24372 10.7319 1.625 9.90966 1.625 8.9375V8.73438C1.625 8.35727 1.7748 7.99561 2.04146 7.72896C2.30811 7.4623 2.66977 7.3125 3.04688 7.3125H9.27184L6.68078 9.92631ZM6.5 0.8125C7.25421 0.8125 7.97753 1.11211 8.51083 1.64542C9.04414 2.17872 9.34375 2.90204 9.34375 3.65625C9.34375 4.41046 9.04414 5.13378 8.51083 5.66708C7.97753 6.20039 7.25421 6.5 6.5 6.5C5.74579 6.5 5.02247 6.20039 4.48917 5.66708C3.95586 5.13378 3.65625 4.41046 3.65625 3.65625C3.65625 2.90204 3.95586 2.17872 4.48917 1.64542C5.02247 1.11211 5.74579 0.8125 6.5 0.8125Z" fill="#FF9B19"/>
</svg>
