<svg width="13" height="13" viewBox="0 0 13 13" fill="none" xmlns="http://www.w3.org/2000/svg">
<path d="M2.70833 9.61414V7.57423L4.9075 9.01127C5.38113 9.32032 5.93446 9.48488 6.5 9.48488C7.06554 9.48488 7.61887 9.32032 8.0925 9.01127L10.2917 7.57423V9.61414C10.2917 9.70204 10.2632 9.78757 10.2104 9.85789L10.2099 9.85898L10.2093 9.85952L10.2077 9.86168L10.2028 9.8671L10.1963 9.87577L10.1893 9.88498L10.1427 9.93968C10.0882 10.0019 10.0309 10.0615 9.971 10.1184C9.82096 10.2631 9.59725 10.451 9.29392 10.6374C8.68617 11.0111 7.76642 11.3746 6.5 11.3746C5.23358 11.3746 4.31383 11.0116 3.70554 10.6374C3.46206 10.4891 3.23508 10.3154 3.02846 10.119C2.94615 10.0401 2.8689 9.9562 2.79717 9.86764L2.79229 9.86223L2.79067 9.85952V9.85844C2.73789 9.78807 2.70903 9.7021 2.70833 9.61414ZM12.0033 5.4861L7.64833 8.33148C7.30679 8.55429 6.9078 8.67294 6.5 8.67294C6.0922 8.67294 5.69321 8.55429 5.35167 8.33148L1.625 5.89614V8.80164C1.625 8.90939 1.5822 9.01272 1.50601 9.0889C1.42983 9.16509 1.32649 9.20789 1.21875 9.20789C1.11101 9.20789 1.00767 9.16509 0.931488 9.0889C0.855301 9.01272 0.8125 8.90939 0.8125 8.80164V5.41623C0.8125 5.3682 0.820264 5.32306 0.835792 5.28081C0.805287 5.19447 0.804845 5.10036 0.834538 5.01374C0.864231 4.92712 0.922317 4.85307 0.999375 4.8036L5.36738 2.00318C5.70553 1.78684 6.09857 1.67188 6.5 1.67188C6.90144 1.67188 7.29447 1.78684 7.63263 2.00318L12.0006 4.8036C12.0577 4.84023 12.1046 4.89055 12.1373 4.94998C12.1699 5.00941 12.1871 5.07605 12.1874 5.14384C12.1877 5.21164 12.171 5.27842 12.1388 5.3381C12.1067 5.39779 12.0601 5.44848 12.0033 5.48556" fill="#FF9B19"/>
</svg>
