<svg width="19" height="19" viewBox="0 0 19 19" fill="none" xmlns="http://www.w3.org/2000/svg">
<path d="M15.8327 7.91634C15.8327 11.8691 11.4476 15.9858 9.97514 17.2572C9.83796 17.3604 9.67098 17.4161 9.49935 17.4161C9.32772 17.4161 9.16073 17.3604 9.02356 17.2572C7.55106 15.9858 3.16602 11.8691 3.16602 7.91634C3.16602 6.23664 3.83328 4.62573 5.02101 3.438C6.20874 2.25027 7.81964 1.58301 9.49935 1.58301C11.1791 1.58301 12.79 2.25027 13.9777 3.438C15.1654 4.62573 15.8327 6.23664 15.8327 7.91634Z" stroke="black" stroke-opacity="0.73" stroke-width="2" stroke-linecap="round" stroke-linejoin="round"/>
<path d="M9.49935 10.2913C10.811 10.2913 11.8743 9.22802 11.8743 7.91634C11.8743 6.60466 10.811 5.54134 9.49935 5.54134C8.18767 5.54134 7.12435 6.60466 7.12435 7.91634C7.12435 9.22802 8.18767 10.2913 9.49935 10.2913Z" stroke="black" stroke-opacity="0.73" stroke-width="2" stroke-linecap="round" stroke-linejoin="round"/>
</svg>
