<svg width="19" height="19" viewBox="0 0 19 19" fill="none" xmlns="http://www.w3.org/2000/svg">
<path d="M12.6673 16.625V15.0417C12.6673 14.2018 12.3337 13.3964 11.7398 12.8025C11.146 12.2086 10.3405 11.875 9.50065 11.875H4.75065C3.9108 11.875 3.10534 12.2086 2.51148 12.8025C1.91761 13.3964 1.58398 14.2018 1.58398 15.0417V16.625M12.6673 2.47633C13.3464 2.65238 13.9478 3.04892 14.3771 3.60372C14.8064 4.15851 15.0393 4.84016 15.0393 5.54167C15.0393 6.24317 14.8064 6.92482 14.3771 7.47962C13.9478 8.03442 13.3464 8.43096 12.6673 8.607M17.4173 16.625V15.0417C17.4168 14.34 17.1833 13.6584 16.7534 13.1039C16.3235 12.5494 15.7217 12.1533 15.0423 11.9779M10.2923 5.54167C10.2923 7.29057 8.87455 8.70833 7.12565 8.70833C5.37675 8.70833 3.95898 7.29057 3.95898 5.54167C3.95898 3.79276 5.37675 2.375 7.12565 2.375C8.87455 2.375 10.2923 3.79276 10.2923 5.54167Z" stroke="black" stroke-opacity="0.73" stroke-width="2" stroke-linecap="round" stroke-linejoin="round"/>
</svg>
