<svg width="19" height="19" viewBox="0 0 19 19" fill="none" xmlns="http://www.w3.org/2000/svg">
<path d="M9.4987 2.37565V1.58398M9.4987 2.37565C8.02896 2.37565 6.61941 2.9595 5.58015 3.99877C4.54088 5.03803 3.95703 6.44758 3.95703 7.91732M9.4987 2.37565C10.9684 2.37565 12.378 2.9595 13.4172 3.99877C14.4565 5.03803 15.0404 6.44758 15.0404 7.91732M12.1904 13.7757L14.7237 11.559C14.8744 11.4134 15.0524 11.299 15.2474 11.2222C15.4423 11.1454 15.6505 11.1078 15.86 11.1115C16.0695 11.1152 16.2763 11.1601 16.4684 11.2436C16.6606 11.3272 16.8344 11.4478 16.98 11.5986C17.1255 11.7493 17.2399 11.9273 17.3167 12.1222C17.3935 12.3172 17.4311 12.5254 17.4274 12.7349C17.4238 12.9444 17.3789 13.1511 17.2953 13.3433C17.2117 13.5355 17.0911 13.7093 16.9404 13.8548L14.0904 16.4673C13.5362 17.1007 12.7445 17.4173 11.8737 17.4173H8.70703C7.8362 17.4173 7.04453 17.1007 6.49036 16.4673L5.45961 15.3083C5.3854 15.2247 5.29434 15.1578 5.19241 15.112C5.09048 15.0661 4.98 15.0424 4.86824 15.0423H3.95703M1.58203 11.084H11.082C11.502 11.084 11.9047 11.2508 12.2016 11.5477C12.4986 11.8447 12.6654 12.2474 12.6654 12.6673C12.6654 13.0872 12.4986 13.49 12.2016 13.7869C11.9047 14.0838 11.502 14.2507 11.082 14.2507H9.4987M3.16536 7.91732H15.832M3.95703 11.084V15.834C3.95703 16.0439 3.87362 16.2453 3.72516 16.3938C3.57669 16.5422 3.37533 16.6257 3.16536 16.6257H1.58203" stroke="black" stroke-opacity="0.73" stroke-width="1.53581" stroke-linecap="round" stroke-linejoin="round"/>
</svg>
